#tb 0: 1/25
0,          0,          0,        1,    93168, 083b68ac10646d425382cd3aed5d0ef0
0,          1,          1,        1,    93400, f8d2b0fed320270c980140d187d01a25
0,          2,          2,        1,    94536, f66ff5cccd63a468feb84aa22dae1c7c
0,          3,          3,        1,    92928, 255ea0d934558adc2e2637bddb1284cf
0,          4,          4,        1,    91800, 864d823c5885003e72f41a869c74d769
0,          5,          5,        1,    93468, c6bfb70c03a7cfb4ec09acf2d7ec4f91
0,          6,          6,        1,    93460, 6a5834ca48a2707e456d8c9c67b2cebb
0,          7,          7,        1,    93132, 2c3968dc6af9917bee1846e1c85c5e99
0,          8,          8,        1,    93252, a6739a7d07fd86f135c79e271da1789c
0,          9,          9,        1,    93580, 8b587ed5fc102e2a0fff55674b1ada23
0,         10,         10,        1,    93548, 4a87d1f0f5a1c3047aa77fc6d10cb6d1
0,         11,         11,        1,    93520, 520bfaebdf5d972dae3671626374bed4
0,         12,         12,        1,    92168, cc7c57ef93047aa13cf3fc5872564563
0,         13,         13,        1,    92860, 8851d9930079a406d9cba89ce00a7feb
0,         14,         14,        1,    94380, 2eb1d9ef63a0e74487f36f3e97bdf291
0,         15,         15,        1,    94392, 2c9e589c3ccece6541193b7e61bf28d9
0,         16,         16,        1,    93360, e138b833f6af0d0e189e8c3879af4cdd
0,         17,         17,        1,    93108, 597e4c457845667e553c96b02acc40c3
0,         18,         18,        1,    92568, 1623855c558e4b779bada7149adcb752
0,         19,         19,        1,    92232, 78666f67c9b6eeff682f5ebf2e2b5145
0,         20,         20,        1,    91696, aba549ebc0337df1aa5708cde9c4650d
0,         21,         21,        1,    91688, cc7b65f321a50e117168b0be6a2c4a0f
0,         22,         22,        1,    92164, 29b235028ca0bf6d9b752069529e2105
0,         23,         23,        1,    92812, a23ca4b1b02965afc8cddf4b6022e9c1
0,         24,         24,        1,    93960, afc0e5e4d45f9af68555cfff9e7f2e5d
0,         25,         25,        1,    92892, 16d1afc5c8aa8b3b55e52e91e5baed53
0,         26,         26,        1,    92248, a4dd3afd173d419eaec5f9632e64da0f
0,         27,         27,        1,    91864, 614063fe03b92352d05d746dcabbbd10
0,         28,         28,        1,    89756, 5a963cfeabc03d1409533bf2e5dd700b
0,         29,         29,        1,    89812, f4fea21c34be3e85ba0790ef1e992214
0,         30,         30,        1,    91184, 7aaad112ebb7fa15612fa63c8b313f80
0,         31,         31,        1,    92076, de3c4aefe9c84b73b9c9494c09a0b22c
0,         32,         32,        1,    92532, 4f445ee8eeaf323a9ff012a05ca1d3e2
0,         33,         33,        1,    94572, 00cd8ab5abe5faa6cf59e54f3871a242
0,         34,         34,        1,    93368, a303dd519e8ff023f488e4e2ee33e256
0,         35,         35,        1,    92420, efce365314ac4d9e40959de0fc6fc01b
0,         36,         36,        1,    91696, bb00659a54d8ded77615403962765238
0,         37,         37,        1,    91912, b0e97a8ef2c73cd3d3b6a2d0bf08a1df
0,         38,         38,        1,    91080, ff5e3be417b46de0bd9af03fb0ac7429
0,         39,         39,        1,    91124, 9bca613b7f5a6543b63ad15c2198c037
0,         40,         40,        1,    90188, 89b0ca054eead42930b946f7199b4fba
0,         41,         41,        1,    91888, eda5dc80817de04c2528872e773bf3a9
0,         42,         42,        1,    91832, eaea94320b6a85179a63b6330663d439
0,         43,         43,        1,    91760, 412fca7fd02727857d4440cec3d4c0df
0,         44,         44,        1,    91108, 9718c1bf512ee2be617bbc526211e8e0
0,         45,         45,        1,    89544, b225acdf63a0183d00cd1f04ec0e49c9
0,         46,         46,        1,    88544, 4ed88cdc92c56f872e5e696fb4da6f0d
0,         47,         47,        1,    88960, 8b907526f25008a30e5c333867a21f54
0,         48,         48,        1,    89068, 3bc4c3f7cb75befba57895b6c9e1d64e
0,         49,         49,        1,    88012, 90132fa682959e1e3a1484b174cb2041
